<svg xmlns="http://www.w3.org/2000/svg" id="cold-drink" enable-background="new 0 0 64 64" viewBox="0 0 64 64">
  <circle cx="32" cy="32" r="32" fill="#fbb044"></circle>
  <path fill="#f9f9f9" d="M19.9,19.1C19.9,12.4,25.3,7,32,7h0c6.7,0,12.1,5.4,12.1,12.1"></path>
  <path fill="#143751" d="M44.1,20.1c-0.6,0-1-0.4-1-1C43.1,13,38.1,8,32,8c-6.1,0-11.1,5-11.1,11.1c0,0.6-0.4,1-1,1s-1-0.4-1-1
				C18.9,11.9,24.8,6,32,6c7.2,0,13.1,5.9,13.1,13.1C45.1,19.7,44.7,20.1,44.1,20.1z"></path>
  <polygon fill="#80bdff" points="47 24.4 45.4 36.7 44.6 43.2 42.9 57 21.1 57 19.4 43.2 18.6 36.7 17 24.4"></polygon>
  <path fill="#143751" d="M42.9,58H21.1c-0.5,0-0.9-0.4-1-0.9l-4-32.6c0-0.3,0.1-0.6,0.2-0.8c0.2-0.2,0.5-0.3,0.7-0.3H47
				c0.3,0,0.6,0.1,0.7,0.3c0.2,0.2,0.3,0.5,0.2,0.8l-4,32.6C43.9,57.6,43.4,58,42.9,58z M22,56H42l3.8-30.6H18.2L22,56z"></path>
  <rect width="33.6" height="5.3" x="15.2" y="19.1" fill="#e7e7e7"></rect>
  <path fill="#143751" d="M48.8,25.4H15.2c-0.6,0-1-0.4-1-1v-5.3c0-0.6,0.4-1,1-1h33.6c0.6,0,1,0.4,1,1v5.3
				C49.8,25,49.3,25.4,48.8,25.4z M16.2,23.4h31.6v-3.3H16.2V23.4z"></path>
  <g>
    <polygon fill="#f9f9f9" points="45.4 36.7 44.6 43.2 19.4 43.2 18.6 36.7"></polygon>
    <path fill="#143751" d="M44.6,44.2H19.4c-0.5,0-0.9-0.4-1-0.9l-0.8-6.5c0-0.3,0.1-0.6,0.2-0.8c0.2-0.2,0.5-0.3,0.7-0.3h26.9
				c0.3,0,0.6,0.1,0.7,0.3c0.2,0.2,0.3,0.5,0.2,0.8l-0.8,6.5C45.6,43.8,45.1,44.2,44.6,44.2z M20.2,42.2h23.5l0.6-4.5H19.7
				L20.2,42.2z"></path>
  </g>
  <g>
    <path fill="#2e9fd9" d="M36.5,40.4c0,4.1-2,7.5-4.5,7.5c-2.5,0-4.5-3.3-4.5-7.5s2-7.5,4.5-7.5C34.5,32.9,36.5,36.3,36.5,40.4z"></path>
    <path fill="#143751" d="M32,48.8c-3.1,0-5.5-3.7-5.5-8.5c0-4.7,2.4-8.5,5.5-8.5c3.1,0,5.5,3.7,5.5,8.5C37.5,45.1,35.1,48.8,32,48.8z
				 M32,33.9c-1.7,0-3.5,2.6-3.5,6.5s1.8,6.5,3.5,6.5c1.7,0,3.5-2.6,3.5-6.5S33.7,33.9,32,33.9z"></path>
  </g>
</svg>
